<?xml version="1.0" encoding="UTF-8" standalone="no"?>
<svg
   xmlns:dc="http://purl.org/dc/elements/1.1/"
   xmlns:cc="http://creativecommons.org/ns#"
   xmlns:rdf="http://www.w3.org/1999/02/22-rdf-syntax-ns#"
   xmlns:svg="http://www.w3.org/2000/svg"
   xmlns="http://www.w3.org/2000/svg"
   xmlns:sodipodi="http://sodipodi.sourceforge.net/DTD/sodipodi-0.dtd"
   xmlns:inkscape="http://www.inkscape.org/namespaces/inkscape"
   viewBox="0 0 47.5 47.5"
   style="enable-background:new 0 0 47.5 47.5;"
   xml:space="preserve"
   version="1.1"
   id="svg2"
   sodipodi:docname="pencil.svg"
   inkscape:version="0.92.2 5c3e80d, 2017-08-06"><sodipodi:namedview
     pagecolor="#ffffff"
     bordercolor="#666666"
     borderopacity="1"
     objecttolerance="10"
     gridtolerance="10"
     guidetolerance="10"
     inkscape:pageopacity="0"
     inkscape:pageshadow="2"
     inkscape:window-width="1680"
     inkscape:window-height="1005"
     id="namedview24"
     showgrid="false"
     inkscape:zoom="14.052817"
     inkscape:cx="25.957234"
     inkscape:cy="24.305804"
     inkscape:window-x="0"
     inkscape:window-y="1"
     inkscape:window-maximized="1"
     inkscape:current-layer="svg2" /><metadata
     id="metadata8"><rdf:RDF><cc:Work
         rdf:about=""><dc:format>image/svg+xml</dc:format><dc:type
           rdf:resource="http://purl.org/dc/dcmitype/StillImage" /></cc:Work></rdf:RDF></metadata><defs
     id="defs6"><clipPath
       id="clipPath16"
       clipPathUnits="userSpaceOnUse"><path
         id="path18"
         d="M 0,38 38,38 38,0 0,0 0,38 Z" /></clipPath></defs><path
     style="fill:#333333;fill-opacity:1;fill-rule:nonzero;stroke:none;stroke-width:1.34085655"
     d="M 9.5253906 -0.013671875 C 8.5142172 -0.013671875 7.5034144 0.37286831 6.7324219 1.1445312 L 1.1445312 6.7324219 C -0.39879459 8.2757477 -0.39879459 10.775033 1.1445312 12.318359 L 3.9394531 15.113281 L 5.3359375 16.509766 L 6.7324219 17.90625 L 8.1289062 19.304688 L 9.5253906 20.701172 L 30.398438 41.572266 C 30.423981 41.601291 30.443021 41.634428 30.470703 41.662109 C 31.243036 42.433102 32.879897 43.060653 34.511719 43.732422 C 36.17361 44.4166 39.86058 45.44651 42.755859 46.292969 C 43.118298 46.48776 46.313184 48.169237 47.240234 47.242188 C 48.16297 46.319453 46.50203 43.17142 46.289062 42.777344 C 45.44327 39.880866 44.409919 36.185276 43.724609 34.519531 C 43.05284 32.889049 42.42529 31.25085 41.654297 30.478516 L 20.701172 9.5273438 L 20.701172 9.5253906 L 19.304688 8.1289062 L 17.908203 6.7324219 L 17.90625 6.7304688 L 16.511719 5.3339844 L 15.113281 3.9375 L 12.320312 1.1445312 C 11.548649 0.37286831 10.536564 -0.013671875 9.5253906 -0.013671875 z "
     id="path22" /></svg>